<svg id="Layer_1" data-name="Layer 1" xmlns="http://www.w3.org/2000/svg" viewBox="0 0 72 72"><defs><style>.cls-1{fill:#f66830;}.cls-2{fill:#fff;}.cls-3{fill:#707a8b;}</style></defs><title>cannected-icons</title><path class="cls-1" d="M45,15.4,36.5,21.95a3,3,0,0,1-.21-3.3A5.33,5.33,0,0,1,40.14,16C41.69,15.78,44.76,15.06,45,15.4Z"/><rect class="cls-2" x="40.24" y="15.97" width="0.28" height="2.8" transform="matrix(0.96, -0.26, 0.26, 0.96, -3.16, 11.3)"/><rect class="cls-3" x="41.2" y="18.29" width="0.28" height="3.27" transform="translate(9.7 53.17) rotate(-72.15)"/><rect class="cls-2" x="38.11" y="16.74" width="0.28" height="3.53" transform="translate(-3.17 9.05) rotate(-12.95)"/><rect class="cls-3" x="39.08" y="20.14" width="0.28" height="3.45" transform="translate(0.33 44.29) rotate(-59.11)"/><polygon class="cls-3" points="36.51 22.17 36.41 21.9 45.09 15.15 45.26 15.37 36.51 22.17"/><path class="cls-3" d="M36.34,22.09c-1.14-1.48-.59-3.82,1.23-5.22s7.34-1.73,7.57-1.74a.17.17,0,0,1,.14.06.17.17,0,0,1,0,.16c-.07.22-1.84,5.52-3.61,6.88a4.67,4.67,0,0,1-2.92,1,3.76,3.76,0,0,1-.53,0A3,3,0,0,1,36.34,22.09Zm1.44-5c-1.67,1.29-2.2,3.42-1.17,4.75a2.75,2.75,0,0,0,2.19,1A4.34,4.34,0,0,0,41.5,22c1.48-1.14,3-5.42,3.41-6.48C43.79,15.56,39.26,16,37.77,17.13Z"/><path class="cls-1" d="M36.07,12.67s-1.73-1.4-.6,20.9c0,0,1.74,13.3-.38,19.93l1.76-.75s.76-17.85-.56-23.11Z"/><path class="cls-1" d="M45.38,25.07l-8.53,6.55a3,3,0,0,1-.21-3.3,5.33,5.33,0,0,1,3.85-2.66C42,25.45,45.11,24.73,45.38,25.07Z"/><rect class="cls-2" x="40.59" y="25.64" width="0.28" height="2.8" transform="matrix(0.96, -0.26, 0.26, 0.96, -5.7, 11.73)"/><rect class="cls-3" x="41.55" y="27.96" width="0.28" height="3.27" transform="translate(0.74 60.21) rotate(-72.15)"/><rect class="cls-2" x="38.46" y="26.41" width="0.28" height="3.53" transform="translate(-5.33 9.37) rotate(-12.95)"/><rect class="cls-3" x="39.43" y="29.81" width="0.28" height="3.45" transform="translate(-7.8 49.3) rotate(-59.11)"/><polygon class="cls-3" points="36.86 31.84 36.76 31.57 45.44 24.82 45.61 25.04 36.86 31.84"/><path class="cls-3" d="M36.69,31.76c-1.14-1.48-.59-3.82,1.23-5.22s7.34-1.73,7.57-1.74a.17.17,0,0,1,.14.06.17.17,0,0,1,0,.16c-.07.22-1.84,5.52-3.61,6.88a4.67,4.67,0,0,1-2.92,1,3.76,3.76,0,0,1-.53,0A3,3,0,0,1,36.69,31.76Zm1.44-5c-1.67,1.29-2.2,3.42-1.17,4.75a2.75,2.75,0,0,0,2.19,1,4.34,4.34,0,0,0,2.71-.94c1.48-1.14,3-5.42,3.41-6.48C44.14,25.23,39.61,25.65,38.12,26.8Z"/><path class="cls-1" d="M45.75,36.15,37.21,42.7a3,3,0,0,1-.21-3.3,5.33,5.33,0,0,1,3.85-2.66C42.41,36.52,45.48,35.81,45.75,36.15Z"/><rect class="cls-2" x="40.95" y="36.72" width="0.28" height="2.8" transform="matrix(0.96, -0.26, 0.26, 0.96, -8.62, 12.23)"/><rect class="cls-3" x="41.92" y="39.04" width="0.28" height="3.27" transform="translate(-9.55 68.24) rotate(-72.15)"/><rect class="cls-2" x="38.83" y="37.49" width="0.28" height="3.53" transform="translate(-7.81 9.73) rotate(-12.95)"/><rect class="cls-3" x="39.8" y="40.88" width="0.28" height="3.45" transform="translate(-17.13 55) rotate(-59.11)"/><polygon class="cls-3" points="37.23 42.92 37.12 42.65 45.8 35.9 45.98 36.12 37.23 42.92"/><path class="cls-3" d="M37.06,42.83c-1.14-1.48-.59-3.82,1.23-5.22s7.34-1.73,7.57-1.74a.17.17,0,0,1,.14.06.17.17,0,0,1,0,.16c-.07.22-1.84,5.52-3.61,6.88a4.67,4.67,0,0,1-2.92,1,3.76,3.76,0,0,1-.53,0A3,3,0,0,1,37.06,42.83Zm1.44-5c-1.67,1.29-2.2,3.42-1.17,4.75a2.75,2.75,0,0,0,2.19,1,4.34,4.34,0,0,0,2.71-.94c1.48-1.14,3-5.42,3.41-6.48C44.51,36.31,40,36.73,38.49,37.87Z"/><path class="cls-1" d="M26.65,15l8.53,6.55a3,3,0,0,0,.21-3.3,5.33,5.33,0,0,0-3.85-2.66C30,15.35,26.91,14.64,26.65,15Z"/><rect class="cls-2" x="29.9" y="16.81" width="2.8" height="0.28" transform="translate(6.67 42.65) rotate(-74.66)"/><rect class="cls-3" x="28.7" y="19.37" width="3.27" height="0.28" transform="translate(-4.52 10.24) rotate(-17.85)"/><rect class="cls-2" x="31.66" y="17.94" width="3.53" height="0.28" transform="translate(8.31 46.6) rotate(-77.05)"/><rect class="cls-3" x="30.73" y="21.3" width="3.45" height="0.28" transform="translate(-6.4 19.7) rotate(-30.89)"/><polygon class="cls-3" points="35.16 21.75 35.27 21.48 26.59 14.73 26.42 14.95 35.16 21.75"/><path class="cls-3" d="M33.42,22.77a3.76,3.76,0,0,1-.53,0,4.67,4.67,0,0,1-2.92-1c-1.77-1.36-3.54-6.66-3.61-6.88a.17.17,0,0,1,0-.16.17.17,0,0,1,.14-.06c.24,0,5.81.38,7.57,1.74s2.37,3.75,1.23,5.22A3,3,0,0,1,33.42,22.77Zm-6.65-7.72c.37,1.06,1.93,5.34,3.41,6.48a4.34,4.34,0,0,0,2.71.94,2.75,2.75,0,0,0,2.19-1c1-1.33.5-3.46-1.17-4.75C32.42,15.56,27.88,15.14,26.76,15.05Z"/><path class="cls-1" d="M26.71,26.84l8.53,6.55a3,3,0,0,0,.21-3.3,5.33,5.33,0,0,0-3.85-2.66C30,27.22,27,26.5,26.71,26.84Z"/><rect class="cls-2" x="29.96" y="28.67" width="2.8" height="0.28" transform="translate(-4.72 51.44) rotate(-74.66)"/><rect class="cls-3" x="28.76" y="31.23" width="3.27" height="0.28" transform="translate(-8.15 10.83) rotate(-17.85)"/><rect class="cls-2" x="31.72" y="29.81" width="3.53" height="0.28" transform="translate(-3.21 55.87) rotate(-77.05)"/><rect class="cls-3" x="30.79" y="33.16" width="3.45" height="0.28" transform="translate(-12.48 21.42) rotate(-30.89)"/><polygon class="cls-3" points="35.22 33.61 35.33 33.34 26.65 26.59 26.48 26.81 35.22 33.61"/><path class="cls-3" d="M33.48,34.63a3.76,3.76,0,0,1-.53,0,4.67,4.67,0,0,1-2.92-1C28.26,32.3,26.5,27,26.42,26.78a.17.17,0,0,1,0-.16.17.17,0,0,1,.14-.06c.24,0,5.81.38,7.57,1.74S36.54,32,35.4,33.53A3,3,0,0,1,33.48,34.63Zm-6.65-7.72c.37,1.06,1.93,5.34,3.41,6.48a4.34,4.34,0,0,0,2.71.94,2.75,2.75,0,0,0,2.19-1c1-1.33.5-3.46-1.17-4.75C32.48,27.43,27.94,27,26.82,26.92Z"/><path class="cls-1" d="M27.61,39.35l8.53,6.55a3,3,0,0,0,.21-3.3,5.33,5.33,0,0,0-3.85-2.66C30.94,39.72,27.87,39,27.61,39.35Z"/><rect class="cls-2" x="30.86" y="41.18" width="2.8" height="0.28" transform="translate(-16.12 61.5) rotate(-74.66)"/><rect class="cls-3" x="29.66" y="43.73" width="3.27" height="0.28" transform="translate(-11.94 11.71) rotate(-17.85)"/><rect class="cls-2" x="32.62" y="42.31" width="3.53" height="0.28" transform="translate(-14.7 66.44) rotate(-77.05)"/><rect class="cls-3" x="31.69" y="45.67" width="3.45" height="0.28" transform="translate(-18.78 23.65) rotate(-30.89)"/><polygon class="cls-3" points="36.12 46.12 36.23 45.84 27.55 39.1 27.38 39.32 36.12 46.12"/><path class="cls-3" d="M34.38,47.14a3.76,3.76,0,0,1-.53,0,4.67,4.67,0,0,1-2.92-1c-1.77-1.36-3.54-6.66-3.61-6.88a.17.17,0,0,1,0-.16.17.17,0,0,1,.14-.06c.24,0,5.81.38,7.57,1.74S37.44,44.55,36.3,46A3,3,0,0,1,34.38,47.14Zm-6.65-7.72c.37,1.06,1.93,5.34,3.41,6.48a4.34,4.34,0,0,0,2.71.94,2.75,2.75,0,0,0,2.19-1c1-1.33.5-3.46-1.17-4.75C33.38,39.93,28.84,39.51,27.72,39.42Z"/><polygon class="cls-3" points="29.66 50.02 42.43 50.09 39.47 59.26 32.17 59.31 29.66 50.02"/></svg>