<?xml version="1.0" encoding="UTF-8"?>
<svg width="143px" height="143px" viewBox="0 0 143 143" version="1.1" xmlns="http://www.w3.org/2000/svg" xmlns:xlink="http://www.w3.org/1999/xlink">
    <!-- Generator: Sketch 51.2 (57519) - http://www.bohemiancoding.com/sketch -->
    <title>add cultivation icon</title>
    <desc>Created with Sketch.</desc>
    <defs></defs>
    <g id="Page-1" stroke="none" stroke-width="1" fill="none" fill-rule="evenodd">
        <g id="1.0-Dashboard-Menu-Sidebar-Expanded" transform="translate(-1084.000000, -402.000000)">
            <g id="Group" transform="translate(345.000000, 352.000000)">
                <g id="action-group-3" transform="translate(660.000000, 0.000000)">
                    <g id="add-cultivation-icon" transform="translate(79.000000, 50.000000)">
                        <circle id="Oval" fill="#F3F5F7" cx="71.5" cy="71.5" r="71.5"></circle>
                        <path d="M60.7647059,99.8235294 L82.2352941,99.8235294 L82.2352941,74.0588235 L60.7647059,74.0588235 L60.7647059,99.8235294 L60.7647059,99.8235294 Z M35,99.8235294 L56.4705882,99.8235294 L56.4705882,44 L35,44 L35,99.8235294 L35,99.8235294 Z M86.5294118,99.8235294 L108,99.8235294 L108,74.0588235 L86.5294118,74.0588235 L86.5294118,99.8235294 L86.5294118,99.8235294 Z M60.7647059,44 L60.7647059,69.7647059 L108,69.7647059 L108,44 L60.7647059,44 L60.7647059,44 Z" id="Shape" fill="#A6BCC6"></path>
                        <path d="M100,75 C91.72,75 85,81.72 85,90 C85,98.28 91.72,105 100,105 C108.28,105 115,98.28 115,90 C115,81.72 108.28,75 100,75 L100,75 Z" id="Path" fill="#F66830"></path>
                        <polygon id="Shape" fill="#FFFFFF" points="101.5 82.5 98.5 82.5 98.5 88.5 92.5 88.5 92.5 91.5 98.5 91.5 98.5 97.5 101.5 97.5 101.5 91.5 107.5 91.5 107.5 88.5 101.5 88.5"></polygon>
                    </g>
                </g>
            </g>
        </g>
    </g>
</svg>