<svg id="Layer_1" data-name="Layer 1" xmlns="http://www.w3.org/2000/svg" viewBox="0 0 72 72"><defs><style>.cls-1{fill:#f66830;}.cls-2{fill:none;stroke:#707a8b;stroke-miterlimit:10;stroke-width:0.5px;}.cls-3{fill:#707a8b;}</style></defs><title>cannected-icons</title><polygon class="cls-1" points="51.51 21.65 59.22 22.58 29.17 40.84 20.99 39.67 51.51 21.65"/><polygon class="cls-2" points="66.94 27.01 59.17 26.12 59.17 22.54 51.4 21.65 51.4 18.07 51.4 18.07 43.63 17.18 43.63 13.6 35.86 12.71 5.06 30.59 5.06 41.31 16.68 48.05 16.68 42.69 24.45 47.16 24.45 52.52 36.07 59.26 66.94 41.45 66.94 27.01"/><polygon class="cls-1" points="35.9 12.96 43.38 13.84 13.52 31.9 5.33 30.73 35.9 12.96"/><polygon class="cls-1" points="9.8 40.63 8.22 39.73 8.22 37.94 9.8 38.84 9.8 40.63"/><polygon class="cls-1" points="9.8 38.49 8.22 37.6 8.22 35.81 9.8 36.71 9.8 38.49"/><polygon class="cls-1" points="11.66 41.73 10.08 40.83 10.08 39.04 11.66 39.94 11.66 41.73"/><polygon class="cls-1" points="11.66 39.59 10.15 38.7 10.15 36.91 11.73 37.81 11.66 39.59"/><polygon class="cls-1" points="13.52 42.76 11.93 41.86 11.93 40.08 13.52 40.97 13.52 42.76"/><polygon class="cls-1" points="13.52 40.63 11.93 39.73 11.93 37.94 13.52 38.84 13.52 40.63"/><polygon class="cls-3" points="29.19 51.83 27.61 50.94 27.61 49.15 29.19 50.05 29.19 51.83"/><polygon class="cls-3" points="29.19 49.7 27.61 48.81 27.61 47.02 29.19 47.91 29.19 49.7"/><polygon class="cls-3" points="31.05 52.93 29.47 52.04 29.47 50.25 31.05 51.15 31.05 52.93"/><polygon class="cls-3" points="31.05 50.8 29.47 49.91 29.47 48.12 31.05 49.01 31.05 50.8"/><polygon class="cls-3" points="32.91 53.97 31.32 53.07 31.32 51.28 32.91 52.18 32.91 53.97"/><polygon class="cls-3" points="32.91 51.83 31.32 50.94 31.32 49.15 32.91 50.05 32.91 51.83"/><polygon class="cls-1" points="39.3 50.05 40.88 49.15 40.88 50.94 39.3 51.83 39.3 50.05"/><polygon class="cls-1" points="39.3 53.97 39.3 52.18 40.88 51.28 40.88 53.07 39.3 53.97"/><polygon class="cls-1" points="41.16 49.01 42.74 48.12 42.74 49.91 41.16 50.8 41.16 49.01"/><polygon class="cls-1" points="41.16 52.93 41.16 51.15 42.74 50.25 42.74 52.04 41.16 52.93"/><polygon class="cls-1" points="43.01 47.91 44.59 47.02 44.59 48.81 43.01 49.7 43.01 47.91"/><polygon class="cls-1" points="43.01 51.83 43.01 50.05 44.59 49.15 44.59 50.94 43.01 51.83"/><polygon class="cls-3" points="48.99 44.48 50.58 43.58 50.58 45.37 48.99 46.26 48.99 44.48"/><polygon class="cls-3" points="48.99 48.4 48.99 46.61 50.58 45.71 50.58 47.5 48.99 48.4"/><polygon class="cls-3" points="50.85 43.38 52.43 42.48 52.43 44.27 50.85 45.16 50.85 43.38"/><polygon class="cls-3" points="50.85 47.3 50.85 45.51 52.43 44.61 52.43 46.4 50.85 47.3"/><polygon class="cls-3" points="52.71 42.34 54.29 41.45 54.29 43.24 52.71 44.13 52.71 42.34"/><polygon class="cls-3" points="52.71 46.26 52.71 44.48 54.29 43.58 54.29 45.37 52.71 46.26"/><polygon class="cls-3" points="58.69 38.84 60.27 37.94 60.27 39.73 58.69 40.63 58.69 38.84"/><polygon class="cls-3" points="58.69 42.76 58.69 40.97 60.27 40.08 60.27 41.86 58.69 42.76"/><polygon class="cls-3" points="60.55 37.81 62.13 36.91 62.13 38.7 60.55 39.59 60.55 37.81"/><polygon class="cls-3" points="60.55 41.73 60.55 39.94 62.13 39.04 62.13 40.83 60.55 41.73"/><polygon class="cls-3" points="62.4 36.71 63.98 35.81 63.98 37.6 62.4 38.49 62.4 36.71"/><polygon class="cls-3" points="62.4 40.63 62.4 38.84 63.98 37.94 63.98 39.73 62.4 40.63"/><polygon class="cls-3" points="43.84 17.13 51.51 18.09 21.54 36.13 13.36 34.97 43.84 17.13"/><polygon class="cls-3" points="59.17 26.12 66.94 27.01 36 45.18 29.17 44.21 59.17 26.12"/><polyline class="cls-2" points="5.06 30.59 13.52 31.9 13.52 35.25 21.29 36.36 21.29 39.73 29.17 40.84 29.17 44.21 36 45.18 36.07 59.26"/></svg>