<?xml version="1.0" encoding="UTF-8"?>
<svg width="127px" height="23px" viewBox="0 0 127 23" version="1.1" xmlns="http://www.w3.org/2000/svg" xmlns:xlink="http://www.w3.org/1999/xlink">
    <!-- Generator: Sketch 51.2 (57519) - http://www.bohemiancoding.com/sketch -->
    <title>logo</title>
    <desc>Created with Sketch.</desc>
    <defs>
        <polygon id="path-1" points="0.108064932 0.116091026 12.7896471 0.116091026 12.7896471 19.3803603 0.108064932 19.3803603"></polygon>
        <polygon id="path-3" points="0 0.228525641 30.1969509 0.228525641 30.1969509 22.7049218 0 22.7049218"></polygon>
    </defs>
    <g id="Page-1" stroke="none" stroke-width="1" fill="none" fill-rule="evenodd">
        <g id="1.0-Dashboard-Menu-Sidebar-Expanded" transform="translate(-42.000000, -24.000000)">
            <g id="header-group">
                <g id="logo" transform="translate(42.000000, 24.000000)">
                    <path d="M41.676659,14.7897667 C41.676659,12.7333308 40.7011726,11.6782795 38.3545459,11.6782795 C37.2471749,11.6782795 36.0610753,12.0568949 35.3229238,12.4900615 L35.3229238,22.5280872 L32.791831,22.5280872 L32.791831,11.2451128 C34.4790346,10.0818436 36.5883265,9.40540769 38.4864305,9.40540769 C42.0720256,9.40540769 44.2338989,11.0018436 44.2338989,14.4648179 L44.2338989,22.5280872 L41.676659,22.5280872 L41.676659,14.7897667 Z" id="Fill-1" fill="#F66830"></path>
                    <path d="M56.4933928,14.7897667 C56.4933928,12.7333308 55.5179063,11.6782795 53.1712796,11.6782795 C52.0641959,11.6782795 50.877809,12.0568949 50.1396575,12.4900615 L50.1396575,22.5280872 L47.6085647,22.5280872 L47.6085647,11.2451128 C49.2957683,10.0818436 51.4050602,9.40540769 53.3031643,9.40540769 C56.8887593,9.40540769 59.0509199,11.0018436 59.0509199,14.4648179 L59.0509199,22.5280872 L56.4933928,22.5280872 L56.4933928,14.7897667 Z" id="Fill-3" fill="#F66830"></path>
                    <path d="M64.3763287,14.708559 L71.49465,14.708559 C71.1521523,12.8417256 70.1502314,11.4888538 68.0409396,11.4888538 C66.037098,11.4888538 64.7188265,12.8688538 64.3763287,14.708559 M68.4630278,20.5526231 C69.9919124,20.5526231 71.2047337,20.2282641 72.6284554,19.2814308 L73.6568106,21.2019308 C71.7848536,22.4740077 70.4927292,22.7715333 68.3311432,22.7715333 C64.0596907,22.7715333 61.6872043,19.8761872 61.6872043,16.0343026 C61.6872043,12.3006359 64.2180097,9.3242 68.0409396,9.3242 C71.6265346,9.3242 73.8938581,11.7595462 74.1047586,15.1688538 C74.1047586,15.2496487 74.1840618,16.1425205 74.1576274,16.7649949 L64.2973129,16.7649949 C64.5082133,19.1189564 65.8529192,20.5526231 68.4630278,20.5526231" id="Fill-5" fill="#F66830"></path>
                    <path d="M76.1610667,16.0614013 C76.1610667,12.3548628 78.8766256,9.40555513 82.7785713,9.40555513 C85.1777794,9.40555513 86.6015011,10.0548628 88.0780916,11.8674397 L86.3112975,13.3827859 C85.1777794,12.1381321 84.2551618,11.6510038 82.7785713,11.6510038 C80.3532161,11.6510038 78.7711753,13.62635 78.7711753,15.9260551 C78.7711753,18.8211064 80.3793631,20.5260551 82.9104559,20.5260551 C84.2551618,20.5260551 85.3360984,20.0928885 86.7598201,18.8211064 L88.1571075,20.6339782 C86.4960509,22.2843756 84.7559785,22.7715038 82.7521369,22.7715038 C78.5864219,22.7715038 76.1610667,19.8764526 76.1610667,16.0614013" id="Fill-7" fill="#F66830"></path>
                    <path d="M90.687798,18.3072038 L90.687798,6.21274231 L93.1924563,6.21274231 L93.1924563,9.62175513 L97.3846057,9.62175513 L97.3846057,11.9488833 L93.1924563,11.9488833 L93.1924563,18.1176013 C93.1924563,19.4704731 93.9834767,20.3636397 95.3543296,20.3636397 C96.1186283,20.3636397 97.0415333,20.3093833 98.3072233,19.8762167 L98.3072233,22.0408705 C97.1734179,22.5551269 96.0134654,22.66305 95.064126,22.66305 C92.3750016,22.66305 90.687798,20.9315628 90.687798,18.3072038" id="Fill-9" fill="#F66830"></path>
                    <path d="M102.393434,14.708559 L109.511755,14.708559 C109.169257,12.8417256 108.167337,11.4888538 106.058332,11.4888538 C104.05449,11.4888538 102.736219,12.8688538 102.393434,14.708559 M106.480133,20.5526231 C108.009305,20.5526231 109.222126,20.2282641 110.645848,19.2814308 L111.673916,21.2019308 C109.801959,22.4740077 108.510122,22.7715333 106.348248,22.7715333 C102.077083,22.7715333 99.7043095,19.8761872 99.7043095,16.0343026 C99.7043095,12.3006359 102.235402,9.3242 106.058332,9.3242 C109.64364,9.3242 111.911251,11.7595462 112.121864,15.1688538 C112.121864,15.2496487 112.201167,16.1425205 112.174733,16.7649949 L102.314418,16.7649949 C102.525319,19.1189564 103.870024,20.5526231 106.480133,20.5526231" id="Fill-11" fill="#F66830"></path>
                    <g id="Group-15" transform="translate(114.070136, 3.309995)">
                        <mask id="mask-2" fill="white">
                            <use xlink:href="#path-1"></use>
                        </mask>
                        <g id="Clip-14"></g>
                        <path d="M6.75200385,8.09768077 C4.08902647,8.09768077 2.66559208,10.0187705 2.66559208,12.5620397 C2.66559208,15.1595654 3.90484774,17.1346167 6.67298801,17.1346167 C8.30761018,17.1346167 9.38854683,16.7288731 10.3114518,16.0524372 L10.3114518,11.3173859 C10.3114518,9.47768077 8.94031154,8.09768077 6.75200385,8.09768077 Z M10.3904676,18.9474885 C10.3904676,18.4063987 9.88936357,18.6496679 9.62588167,18.7578859 C8.67654231,19.1099628 7.27925498,19.3803603 6.48852195,19.3803603 C2.29637262,19.3803603 0.108064932,16.4313474 0.108064932,12.6160013 C0.108064932,8.82837308 2.69173914,5.82480897 6.67298801,5.82480897 C8.30761018,5.82480897 9.44112828,6.25797564 10.3904676,6.93441154 L10.3904676,0.116091026 L12.7896758,0.116091026 L12.7896758,19.2181808 L10.3904676,19.2181808 L10.3904676,18.9474885 Z" id="Fill-13" fill="#F66830" mask="url(#mask-2)"></path>
                    </g>
                    <g id="Group-18" transform="translate(0.000000, 0.066405)">
                        <mask id="mask-4" fill="white">
                            <use xlink:href="#path-3"></use>
                        </mask>
                        <g id="Clip-17"></g>
                        <path d="M26.8909283,9.76742179 C26.8909283,9.76742179 26.7377812,9.6774859 26.7337586,9.67512692 C26.3697111,9.45102436 25.7680414,9.21306282 25.7680414,9.21306282 L25.7691907,9.21571667 C25.1232722,8.94738333 24.3328265,8.78638333 23.4737088,8.78638333 C22.5157495,8.78638333 21.5460097,8.98601154 20.8483717,9.31302436 C20.4314554,9.48699872 20.0340776,9.69901154 19.6642835,9.95201154 C18.6250097,10.6638321 17.7920391,11.6643321 17.2653627,12.8393962 L15.9933514,15.604409 C15.3517428,17.2848833 14.1119124,18.8017038 12.6473898,19.6910372 C11.1664894,20.441191 10.0441771,20.3135115 10.0441771,20.3135115 C6.55799842,19.9440372 3.67435136,17.497191 2.59255271,14.1961013 C2.29516584,13.2884859 2.13138756,12.3180628 2.13138756,11.3075372 C2.13138756,6.30385769 6.08390339,2.24760128 10.9598989,2.24760128 C14.6966296,2.24760128 17.8885821,4.63134487 19.1772586,7.99671667 C19.7231862,7.56531923 20.3599102,7.25069103 21.0546749,7.0899859 C19.3893084,3.05731923 15.4965572,0.228319231 10.9598989,0.228319231 C4.90671109,0.228319231 -2.87330317e-05,5.26413974 -2.87330317e-05,11.475909 C-2.87330317e-05,16.1717423 2.80517715,20.1937936 6.78901199,21.8781013 C7.79581742,22.4091654 9.06093281,22.7049218 10.2605369,22.7049218 C10.3266229,22.7049218 10.2605369,22.7049218 10.3263355,22.7034474 C12.5448129,22.6427038 14.5225075,21.5593449 15.8672133,19.8815244 C15.8672133,19.8815244 16.0988016,19.6450372 16.315736,19.3038705 C17.0366477,18.1712679 18.8341862,14.4358321 18.8341862,14.4358321 C19.6269305,12.4837808 21.2638514,10.9392423 23.4308966,10.9392423 C25.9585414,10.9392423 28.025883,12.9434859 28.2166704,15.48705 C28.2373581,15.6669218 28.250288,15.8491526 28.250288,16.0349218 C28.2505753,18.6710756 26.1283536,20.8080115 23.5104871,20.8080115 C21.7925391,20.8083064 20.2923876,19.8850628 19.461141,18.5074218 C19.0381907,19.0446782 18.5684057,19.5403577 18.0578197,19.9894474 C19.2970753,21.6345372 21.2379916,22.6946013 23.42084,22.6946013 C27.1636048,22.6943064 30.1972382,19.5804603 30.1969509,15.7394603 C30.1966636,13.2012038 28.8703468,10.981409 26.8909283,9.76742179" id="Fill-16" fill="#F66830" mask="url(#mask-4)"></path>
                    </g>
                    <path d="M10.6208491,12.1532 C10.0703242,12.1532 9.62438756,11.6952641 9.62438756,11.1302897 C9.62438756,10.5656103 10.0703242,10.1076744 10.6208491,10.1076744 C11.171374,10.1076744 11.6173106,10.5656103 11.6173106,11.1302897 C11.6173106,11.6952641 11.171374,12.1532 10.6208491,12.1532 M10.6208491,4.06987949 C6.82119299,4.06987949 3.74101199,7.2312 3.74101199,11.1302897 C3.74101199,14.9580205 6.70884683,18.0715718 10.4113853,18.1856872 C11.0840256,18.1547256 13.613107,17.8011744 14.9486183,14.3066487 C15.3261704,13.3185333 15.7419373,11.6017897 17.199564,10.7437128 L17.4794238,10.5998154 C17.2147925,6.94871282 14.246383,4.06987949 10.6208491,4.06987949" id="Fill-19" fill="#72706D"></path>
                    <path d="M28.7657299,17.2112244 C28.3804199,17.4429936 28.050852,17.7614551 27.8048973,18.1430192 L27.8023113,18.1456731 L27.802886,18.1465577 C27.5006145,18.6174679 27.3233317,19.1806731 27.3233317,19.7866346 C27.3233317,21.4205192 28.6019516,22.7459679 30.1880149,22.7710321 C30.1908882,22.7710321 30.1940489,22.7713269 30.1969222,22.7713269 L30.1969222,16.8022372 L30.1969222,15.8226731 L28.7657299,17.2112244 Z" id="Fill-21" fill="#F66830"></path>
                    <path d="M23.5117226,16.9779808 C22.9623471,16.9405321 22.5468674,16.4534038 22.5833584,15.8899038 C22.6198493,15.326109 23.094519,14.8997244 23.6436072,14.9371731 C24.1926955,14.9746218 24.6084624,15.46175 24.5719715,16.0255449 C24.5354805,16.5890449 24.0608109,17.0154295 23.5117226,16.9779808 M23.8157181,12.2780192 C22.7566186,12.2054808 21.7768222,12.6150577 21.0720009,13.3198013 L21.0688403,13.3118397 C19.7873471,14.4928013 19.3023335,17.0805962 19.3023335,17.0805962 C19.6339127,17.5963269 20.0674941,18.0165192 20.4783765,18.3405833 C20.999881,18.7811218 21.6774059,19.2251987 22.4845167,19.4678782 C22.7560439,19.5578141 23.0416502,19.6170833 23.3396118,19.6377244 C25.3198923,19.7724808 27.0318063,18.2341346 27.1634036,16.2018782 C27.2950009,14.1696218 25.7959986,12.4127756 23.8157181,12.2780192" id="Fill-23" fill="#72706D"></path>
                </g>
            </g>
        </g>
    </g>
</svg>