<?xml version="1.0" encoding="UTF-8"?>
<svg width="31px" height="23px" viewBox="0 0 31 23" version="1.1" xmlns="http://www.w3.org/2000/svg" xmlns:xlink="http://www.w3.org/1999/xlink">
    <!-- Generator: Sketch 51.2 (57519) - http://www.bohemiancoding.com/sketch -->
    <title>logo-small</title>
    <desc>Created with Sketch.</desc>
    <defs>
        <polygon id="path-1" points="0 0.228525641 30.1969509 0.228525641 30.1969509 22.7049218 0 22.7049218"></polygon>
    </defs>
    <g id="Page-1" stroke="none" stroke-width="1" fill="none" fill-rule="evenodd">
        <g id="1.1-Dashboard-Menu-Sidebar-Collapsed" transform="translate(-22.000000, -24.000000)">
            <g id="header-group">
                <g id="logo-small" transform="translate(22.000000, 24.000000)">
                    <g id="Group-18" transform="translate(0.000000, 0.066405)">
                        <mask id="mask-2" fill="white">
                            <use xlink:href="#path-1"></use>
                        </mask>
                        <g id="Clip-17"></g>
                        <path d="M26.8909283,9.76742179 C26.8909283,9.76742179 26.7377812,9.6774859 26.7337586,9.67512692 C26.3697111,9.45102436 25.7680414,9.21306282 25.7680414,9.21306282 L25.7691907,9.21571667 C25.1232722,8.94738333 24.3328265,8.78638333 23.4737088,8.78638333 C22.5157495,8.78638333 21.5460097,8.98601154 20.8483717,9.31302436 C20.4314554,9.48699872 20.0340776,9.69901154 19.6642835,9.95201154 C18.6250097,10.6638321 17.7920391,11.6643321 17.2653627,12.8393962 L15.9933514,15.604409 C15.3517428,17.2848833 14.1119124,18.8017038 12.6473898,19.6910372 C11.1664894,20.441191 10.0441771,20.3135115 10.0441771,20.3135115 C6.55799842,19.9440372 3.67435136,17.497191 2.59255271,14.1961013 C2.29516584,13.2884859 2.13138756,12.3180628 2.13138756,11.3075372 C2.13138756,6.30385769 6.08390339,2.24760128 10.9598989,2.24760128 C14.6966296,2.24760128 17.8885821,4.63134487 19.1772586,7.99671667 C19.7231862,7.56531923 20.3599102,7.25069103 21.0546749,7.0899859 C19.3893084,3.05731923 15.4965572,0.228319231 10.9598989,0.228319231 C4.90671109,0.228319231 -2.87330317e-05,5.26413974 -2.87330317e-05,11.475909 C-2.87330317e-05,16.1717423 2.80517715,20.1937936 6.78901199,21.8781013 C7.79581742,22.4091654 9.06093281,22.7049218 10.2605369,22.7049218 C10.3266229,22.7049218 10.2605369,22.7049218 10.3263355,22.7034474 C12.5448129,22.6427038 14.5225075,21.5593449 15.8672133,19.8815244 C15.8672133,19.8815244 16.0988016,19.6450372 16.315736,19.3038705 C17.0366477,18.1712679 18.8341862,14.4358321 18.8341862,14.4358321 C19.6269305,12.4837808 21.2638514,10.9392423 23.4308966,10.9392423 C25.9585414,10.9392423 28.025883,12.9434859 28.2166704,15.48705 C28.2373581,15.6669218 28.250288,15.8491526 28.250288,16.0349218 C28.2505753,18.6710756 26.1283536,20.8080115 23.5104871,20.8080115 C21.7925391,20.8083064 20.2923876,19.8850628 19.461141,18.5074218 C19.0381907,19.0446782 18.5684057,19.5403577 18.0578197,19.9894474 C19.2970753,21.6345372 21.2379916,22.6946013 23.42084,22.6946013 C27.1636048,22.6943064 30.1972382,19.5804603 30.1969509,15.7394603 C30.1966636,13.2012038 28.8703468,10.981409 26.8909283,9.76742179" id="Fill-16" fill="#F66830" mask="url(#mask-2)"></path>
                    </g>
                    <path d="M10.6208491,12.1532 C10.0703242,12.1532 9.62438756,11.6952641 9.62438756,11.1302897 C9.62438756,10.5656103 10.0703242,10.1076744 10.6208491,10.1076744 C11.171374,10.1076744 11.6173106,10.5656103 11.6173106,11.1302897 C11.6173106,11.6952641 11.171374,12.1532 10.6208491,12.1532 M10.6208491,4.06987949 C6.82119299,4.06987949 3.74101199,7.2312 3.74101199,11.1302897 C3.74101199,14.9580205 6.70884683,18.0715718 10.4113853,18.1856872 C11.0840256,18.1547256 13.613107,17.8011744 14.9486183,14.3066487 C15.3261704,13.3185333 15.7419373,11.6017897 17.199564,10.7437128 L17.4794238,10.5998154 C17.2147925,6.94871282 14.246383,4.06987949 10.6208491,4.06987949" id="Fill-19" fill="#72706D"></path>
                    <path d="M28.7657299,17.2112244 C28.3804199,17.4429936 28.050852,17.7614551 27.8048973,18.1430192 L27.8023113,18.1456731 L27.802886,18.1465577 C27.5006145,18.6174679 27.3233317,19.1806731 27.3233317,19.7866346 C27.3233317,21.4205192 28.6019516,22.7459679 30.1880149,22.7710321 C30.1908882,22.7710321 30.1940489,22.7713269 30.1969222,22.7713269 L30.1969222,16.8022372 L30.1969222,15.8226731 L28.7657299,17.2112244 Z" id="Fill-21" fill="#F66830"></path>
                    <path d="M23.5117226,16.9779808 C22.9623471,16.9405321 22.5468674,16.4534038 22.5833584,15.8899038 C22.6198493,15.326109 23.094519,14.8997244 23.6436072,14.9371731 C24.1926955,14.9746218 24.6084624,15.46175 24.5719715,16.0255449 C24.5354805,16.5890449 24.0608109,17.0154295 23.5117226,16.9779808 M23.8157181,12.2780192 C22.7566186,12.2054808 21.7768222,12.6150577 21.0720009,13.3198013 L21.0688403,13.3118397 C19.7873471,14.4928013 19.3023335,17.0805962 19.3023335,17.0805962 C19.6339127,17.5963269 20.0674941,18.0165192 20.4783765,18.3405833 C20.999881,18.7811218 21.6774059,19.2251987 22.4845167,19.4678782 C22.7560439,19.5578141 23.0416502,19.6170833 23.3396118,19.6377244 C25.3198923,19.7724808 27.0318063,18.2341346 27.1634036,16.2018782 C27.2950009,14.1696218 25.7959986,12.4127756 23.8157181,12.2780192" id="Fill-23" fill="#72706D"></path>
                </g>
            </g>
        </g>
    </g>
</svg>