<svg id="Layer_1" data-name="Layer 1" xmlns="http://www.w3.org/2000/svg" viewBox="0 0 72 72"><defs><style>.cls-1{fill:#fff;}.cls-2{fill:none;}.cls-2,.cls-5{stroke:#707a8b;stroke-miterlimit:10;stroke-width:1.5px;}.cls-3{fill:#707a8b;}.cls-4,.cls-5{fill:#f66830;}</style></defs><title>cannected-icons</title><rect class="cls-1" x="23.22" y="17.62" width="36.77" height="36.77" rx="1.9" ry="1.9"/><rect class="cls-2" x="23.22" y="17.62" width="36.77" height="36.77" rx="1.9" ry="1.9"/><polygon class="cls-1" points="19.31 28.17 26.9 28.17 26.9 35.67 31.06 44.25 14.98 46.72 15.34 43.58 19.31 35.75 19.31 28.17"/><path class="cls-3" d="M35.06,51.06,35,51,27.54,34.75V28.92a1,1,0,0,0,.84-1h0a1,1,0,0,0-1-1H18.86a1,1,0,0,0-1,1h0a1,1,0,0,0,1,1h0v5.81L11.42,51l0,.09a2.93,2.93,0,0,0,.41,2.55l.1.15A2.92,2.92,0,0,0,14.28,55H32.17a2.92,2.92,0,0,0,2.38-1.23l.1-.15A2.93,2.93,0,0,0,35.06,51.06ZM20.28,35.21a.72.72,0,0,0,.07-.3v-6H26.1v6a.72.72,0,0,0,.07.3l3.45,7.48c-3.79.63-6.2,2.24-9,2.3a21.31,21.31,0,0,1-4.53-.63Z"/><circle class="cls-4" cx="17.02" cy="48.4" r="1.68"/><circle class="cls-1" cx="22.33" cy="51.3" r="1.09"/><circle class="cls-4" cx="25.99" cy="47.5" r="2.58"/><circle class="cls-5" cx="41.61" cy="36" r="8.1"/><circle class="cls-3" cx="55.72" cy="21.43" r="1.33"/></svg>