
<svg width="388px" height="95px" viewBox="0 0 388 95" version="1.1" xmlns="http://www.w3.org/2000/svg" xmlns:xlink="http://www.w3.org/1999/xlink">
    <!-- Generator: Sketch 51.1 (57501) - http://www.bohemiancoding.com/sketch -->
    <desc>Created with Sketch.</desc>
    <defs></defs>
    <g id="Page-1" stroke="none" stroke-width="1" fill="none" fill-rule="evenodd">
        <g id="1.17-cultivation" transform="translate(-526.000000, -365.000000)">
            <g id="popup-group" transform="translate(320.000000, 266.000000)">
                <g id="Group-4" transform="translate(206.000000, 90.000000)">
                    <g id="Group-3" transform="translate(0.000000, 20.000000)">
                        <g id="Group" transform="translate(0.000000, 7.000000)">
                            <path d="M4.52727273,62 L4.52727273,0" id="Shape" stroke="#707A8B" stroke-width="1.2890625"></path>
                            <rect id="Rectangle-4" fill="#FFFFFF" x="5" y="0" width="73" height="62"></rect>
                            <path d="M0,0 L83,0" id="Shape" stroke="#707A8B" stroke-width="1.2890625"></path>
                            <path d="M78.4727273,62 L78.4727273,0" id="Shape" stroke="#707A8B" stroke-width="1.2890625"></path>
                            <rect id="Rectangle-path" fill="#707A8B" fill-rule="nonzero" x="0" y="58.9756098" width="83" height="3.02439024"></rect>
                        </g>
                        <g id="cannected-icons_Room-Icon" transform="translate(25.000000, 24.000000)" fill-rule="nonzero">
                            <path d="M16.654655,0 C16.654655,0 12.4049039,7.29394602 13.4718627,12.0350109 C13.8201166,13.9306672 14.5148639,15.7741972 15.5334441,17.5054705 C15.8063525,18.3222278 15.98792,19.1570806 16.0759655,20 C16.0759655,20 16.0759655,20 16.0759655,20 L17.2152605,20 C17.2152605,20 17.2152605,20 17.2152605,20 L17.2152605,19.5477753 C17.3353592,18.8597381 17.5044229,18.1778434 17.7216138,17.5054705 C18.740194,15.7741972 19.4349414,13.9306672 19.7831952,12.0350109 C20.8863221,7.32312181 16.654655,0 16.654655,0 Z M16.6666667,21.1086798 C16.6666667,20.9336251 16.6666667,20.539752 16.6666667,20 C16.7165444,20.3694293 16.7054043,20.7399527 16.6333333,21.1086798 L16.6666667,21.1086798 Z" id="Shape" fill="#707A8B"></path>
                            <path d="M3.33399388,4.66666667 C3.33399388,4.66666667 3.0173429,16.4912281 16.2500206,21.3333333 L16.6666667,20.877193 C16.6666667,20.877193 15.6667162,20.4385965 13.6001519,14.122807 C12.4168772,10.7368421 12.1668896,9.03508772 3.33399388,4.66666667 Z" id="Shape" fill="#F66830"></path>
                            <path d="M16.6666667,20.3301724 C27.7560976,25.1033663 33.3333333,15.5569784 33.3333333,15.5569784 C33.3333333,15.5569784 28.2439024,13.1703815 19.7398374,18.277699 L16.6666667,20.3301724 Z" id="Shape" fill="#F66830"></path>
                            <path d="M16.6666667,19.754879 C13.7505942,23.4419227 8.78072733,25.7697292 3.33333333,26 C3.33333333,26 5.63689605,21.1444184 16.5885798,19.3333333 L16.6666667,19.754879 Z" id="Shape" fill="#F66830"></path>
                            <rect id="Rectangle-path" fill="#707A8B" x="15" y="19" width="3.33333333" height="13.3333333"></rect>
                            <path d="M16.6666667,20.3301724 C5.57723577,25.1033663 0,15.5569784 0,15.5569784 C0,15.5569784 5.08943089,13.1703815 13.5934959,18.277699 L16.6666667,20.3301724 Z" id="Shape" fill="#707A8B"></path>
                            <path d="M30.3326728,4 C30.3326728,4 30.6493238,15.8245614 17.416646,20.6666667 L17,20.2280702 C17,20.2280702 17.9999505,19.7894737 20.0665147,13.4736842 C21.2164578,10.0701754 21.4664454,8.36842105 30.3326728,4 Z" id="Shape" fill="#707A8B"></path>
                            <path d="M16.6666667,19.754879 C19.5827392,23.4419227 24.552606,25.7697292 30,26 C30,26 27.6964373,21.1444184 16.7447535,19.3333333 L16.6666667,19.754879 Z" id="Shape" fill="#707A8B"></path>
                            <polygon id="Shape" fill="#707A8B" points="3 26 6.54706685 42.6666667 16.3151432 42.6666667 16.3515234 42.6666667 26.1195998 42.6666667 29.6666667 26"></polygon>
                        </g>
                    </g>
                    <g id="Group-2" transform="translate(108.000000, 53.000000)" fill="#FFFFFF">
                        <circle id="Oval-2" cx="7" cy="7" r="7"></circle>
                        <circle id="Oval-2-Copy" cx="36" cy="7" r="7"></circle>
                        <circle id="Oval-2-Copy-2" cx="65" cy="7" r="7"></circle>
                        <circle id="Oval-2-Copy-3" cx="94" cy="7" r="7"></circle>
                        <circle id="Oval-2-Copy-4" cx="123" cy="7" r="7"></circle>
                    </g>
                    <g id="Group-3-Copy" transform="translate(263.000000, 0.000000)">
                        <g id="Group" transform="translate(0.000000, 10.500000)">
                            <path d="M6.81818182,93 L6.81818182,0" id="Shape" stroke="#707A8B" stroke-width="1.93359375"></path>
                            <rect id="Rectangle-4" fill="#FFFFFF" x="7.53012048" y="0" width="109.939759" height="93"></rect>
                            <path d="M0,0 L125,0" id="Shape" stroke="#707A8B" stroke-width="1.93359375"></path>
                            <path d="M118.181818,93 L118.181818,0" id="Shape" stroke="#707A8B" stroke-width="1.93359375"></path>
                            <rect id="Rectangle-path" fill="#707A8B" fill-rule="nonzero" x="0" y="88.4634146" width="125" height="4.53658537"></rect>
                        </g>
                        <g id="cannected-icons_Room-Icon" transform="translate(37.650602, 36.000000)" fill-rule="nonzero">
                            <path d="M25.0823118,0 C25.0823118,0 18.6820842,10.940919 20.2889499,18.0525164 C20.8134286,20.8960007 21.8597348,23.6612958 23.3937411,26.2582057 C23.8047477,27.4833417 24.0781928,28.7356209 24.2107915,30 C24.2107915,30 24.2107915,30 24.2107915,30 L25.9265971,30 C25.9265971,30 25.9265971,30 25.9265971,30 L25.9265971,29.321663 C26.1074686,28.2896071 26.3620826,27.2667651 26.6891774,26.2582057 C28.2231838,23.6612958 29.26949,20.8960007 29.7939687,18.0525164 C31.4553044,10.9846827 25.0823118,0 25.0823118,0 Z M25.1004016,31.6630197 C25.1004016,31.4004376 25.1004016,30.809628 25.1004016,30 C25.1755187,30.554144 25.1587415,31.109929 25.0502008,31.6630197 L25.1004016,31.6630197 Z" id="Shape" fill="#707A8B"></path>
                            <path d="M5.02107512,7 C5.02107512,7 4.54419111,24.7368421 24.4729227,32 L25.1004016,31.3157895 C25.1004016,31.3157895 23.5944521,30.6578947 20.4821565,21.1842105 C18.7001163,16.1052632 18.3236289,13.5526316 5.02107512,7 Z" id="Shape" fill="#F66830"></path>
                            <path d="M25.1004016,30.4952586 C41.8013517,37.6550494 50.2008032,23.3354677 50.2008032,23.3354677 C50.2008032,23.3354677 42.5359976,19.7555722 29.7286708,27.4165485 L25.1004016,30.4952586 Z" id="Shape" fill="#F66830"></path>
                            <path d="M25.1004016,29.6323185 C20.7087261,35.1628841 13.2239869,38.6545938 5.02008032,39 C5.02008032,39 8.48930128,31.7166276 24.9828009,29 L25.1004016,29.6323185 Z" id="Shape" fill="#F66830"></path>
                            <rect id="Rectangle-path" fill="#707A8B" x="22.5903614" y="28.5" width="5.02008032" height="20"></rect>
                            <path d="M25.1004016,30.4952586 C8.39945146,37.6550494 0,23.3354677 0,23.3354677 C0,23.3354677 7.66480556,19.7555722 20.4721324,27.4165485 L25.1004016,30.4952586 Z" id="Shape" fill="#707A8B"></path>
                            <path d="M45.6817361,6 C45.6817361,6 46.1586201,23.7368421 26.2298886,31 L25.6024096,30.3421053 C25.6024096,30.3421053 27.1083591,29.6842105 30.2206547,20.2105263 C31.9524966,15.1052632 32.328984,12.5526316 45.6817361,6 Z" id="Shape" fill="#707A8B"></path>
                            <path d="M25.1004016,29.6323185 C29.4920771,35.1628841 36.9768163,38.6545938 45.1807229,39 C45.1807229,39 41.7115019,31.7166276 25.2180023,29 L25.1004016,29.6323185 Z" id="Shape" fill="#707A8B"></path>
                            <polygon id="Shape" fill="#707A8B" points="4.51807229 39 9.86004043 64 24.5709989 64 24.6257883 64 39.3367467 64 44.6787149 39"></polygon>
                        </g>
                    </g>
                </g>
            </g>
        </g>
    </g>
</svg>