
<svg viewBox="0 0 24 24" version="1.1" xmlns="http://www.w3.org/2000/svg" xmlns:xlink="http://www.w3.org/1999/xlink">
    <!-- Generator: Sketch 51.1 (57501) - http://www.bohemiancoding.com/sketch -->
    <desc>Created with Sketch.</desc>
    <defs></defs>
    <g id="Page-1" stroke="none" stroke-width="1" fill="none" fill-rule="evenodd">
        <g id="1.4-cultivation" transform="translate(-162.000000, -485.000000)">
            <g id="table-group" transform="translate(147.000000, 282.000000)">
                <g id="row-4" transform="translate(0.000000, 203.000000)">
                    <g id="Group-10" transform="translate(15.000000, 0.000000)">
                        <g id="Group-3">
                            <circle id="Oval" fill="#F66830" cx="12" cy="12" r="12"></circle>
                            <g id="cannected-icons_Room-Icon" transform="translate(7.000000, 5.000000)" fill-rule="nonzero">
                                <path d="M5.00639651,0 C5.00639651,0 3.73147118,2.18818381 4.05155881,3.61050328 C4.15603497,4.17920015 4.36445917,4.73225916 4.67003323,5.25164114 C4.75190575,5.49666833 4.80637601,5.74712419 4.83278966,6 C4.83278966,6 4.83278966,6 4.83278966,6 L5.17457815,6 C5.17457815,6 5.17457815,6 5.17457815,6 L5.17457815,5.8643326 C5.21060775,5.65792142 5.26132686,5.45335303 5.32648415,5.25164114 C5.6320582,4.73225916 5.84048241,4.17920015 5.94495856,3.61050328 C6.27589663,2.19693654 5.00639651,0 5.00639651,0 Z M5.01,6.33260394 C5.01,6.28008753 5.01,6.1619256 5.01,6 C5.02496332,6.1108288 5.0216213,6.2219858 5,6.33260394 L5.01,6.33260394 Z" id="Shape" fill="#707A8B"></path>
                                <path d="M1.00019816,2 C1.00019816,2 0.905202869,5.54736842 4.87500619,7 L5,6.86315789 C5,6.86315789 4.70001486,6.73157895 4.08004558,4.83684211 C3.72506316,3.82105263 3.65006688,3.31052632 1.00019816,2 Z" id="Shape" fill="#FFFFFF"></path>
                                <path d="M5,7.59905171 C8.32682927,9.03100989 10,6.16709353 10,6.16709353 C10,6.16709353 8.47317073,5.45111445 5.92195122,6.9833097 L5,7.59905171 Z" id="Shape" fill="#FFFFFF"></path>
                                <path d="M5,7.1264637 C4.12517825,8.23257682 2.6342182,8.93091876 1,9 C1,9 1.69106881,7.54332553 4.97657394,7 L5,7.1264637 Z" id="Shape" fill="#FFFFFF"></path>
                                <rect id="Rectangle-path" fill="#707A8B" x="5" y="7" width="1" height="4"></rect>
                                <path d="M5,7.59905171 C1.67317073,9.03100989 0,6.16709353 0,6.16709353 C0,6.16709353 1.52682927,5.45111445 4.07804878,6.9833097 L5,7.59905171 Z" id="Shape" fill="#707A8B"></path>
                                <path d="M8.99980184,3 C8.99980184,3 9.09479713,6.54736842 5.12499381,8 L5,7.86842105 C5,7.86842105 5.29998514,7.73684211 5.91995442,5.84210526 C6.26493733,4.82105263 6.33993362,4.31052632 8.99980184,3 Z" id="Shape" fill="#707A8B"></path>
                                <path d="M5,7.1264637 C5.87482175,8.23257682 7.3657818,8.93091876 9,9 C9,9 8.30893119,7.54332553 5.02342606,7 L5,7.1264637 Z" id="Shape" fill="#707A8B"></path>
                                <polygon id="Shape" fill="#707A8B" points="1 9 2.06412005 14 4.99454297 14 5.00545703 14 7.93587995 14 9 9"></polygon>
                            </g>
                        </g>
                    </g>
                </g>
            </g>
        </g>
    </g>
</svg>