<svg id="Layer_1" data-name="Layer 1" xmlns="http://www.w3.org/2000/svg" viewBox="0 0 72 72"><defs><style>.cls-1,.cls-3,.cls-4{fill:#fff;}.cls-2{fill:#707a8b;}.cls-3,.cls-4{stroke:#707a8b;stroke-linecap:round;stroke-linejoin:round;}.cls-3{stroke-width:0.75px;}.cls-4{stroke-width:1.2px;}.cls-5{fill:#f66830;}</style></defs><title>cannected-icons</title><rect class="cls-1" x="40.7" y="20.29" width="17.87" height="15.29" transform="translate(5.61 -8.19) rotate(10)"/><polygon class="cls-2" points="45.26 28.66 52.94 30.01 53.61 26.17 45.93 24.82 45.26 28.66"/><path class="cls-2" d="M55.27,31.74a1.3,1.3,0,0,1-1.51,1.05L43.52,31a1.3,1.3,0,0,1-1.05-1.51l1.13-6.4A1.3,1.3,0,0,1,45.1,22l10.24,1.81a1.3,1.3,0,0,1,1.05,1.51Zm8.19-12.27a2.28,2.28,0,0,0-2.13-1.11l-.16,0-2.71.52a15.44,15.44,0,0,1-3.17-.35L55,18.49l-8-1.41a15.35,15.35,0,0,1-3.1-.76l-2.37-1.41-.14-.07a2.28,2.28,0,0,0-2.38.32,2.22,2.22,0,0,0-.81,2.15L38.65,21a43.06,43.06,0,0,0-3.13,17.83L34,42.07a2.29,2.29,0,0,0,0,2.21,2.31,2.31,0,0,0,2,1.19l3,0c.17,0,.54,0,1-.08a13,13,0,0,1,2.26-.13L50,46.66a13,13,0,0,1,2.08.89c.41.2.75.36.91.42l2.88,1a2.29,2.29,0,0,0,3-2.52l-.27-3.6A42.45,42.45,0,0,0,61.79,25l1.66-3.17a2.27,2.27,0,0,0,0-2.38Z"/><path class="cls-3" d="M32.82,15.84l-2.53,2.22a17.24,17.24,0,0,1-3.83,2l-9.27,3.37a17.25,17.25,0,0,1-4.2,1l-3.36-.08a1.19,1.19,0,0,0-.74,2l3.1,3.5a55.49,55.49,0,0,0,7.8,21.42l.14,4.55a1.19,1.19,0,0,0,1.76,1.09l3.13-1.78c.47-.27.95-.51,1.39-.77a17.9,17.9,0,0,1,2.89-1.37l7.22-2.63a17.9,17.9,0,0,1,3.09-.81c.51-.09,1-.21,1.56-.31l3.54-.65a1.19,1.19,0,0,0,.65-2L42.34,43a54.51,54.51,0,0,0-7.8-21.42l.12-4.68a1.19,1.19,0,0,0-1.84-1Z"/><polygon class="cls-4" points="20.48 37.53 32.88 33.02 29.6 24 17.2 28.51 20.48 37.53"/><rect class="cls-5" x="19.02" y="26.42" width="12.19" height="8.64" rx="0.43" ry="0.43" transform="translate(-9 10.44) rotate(-20)"/><path class="cls-1" d="M22.73,29.69l3.38-1.23"/><path class="cls-1" d="M26.32,29l-3.38,1.23a.6.6,0,1,1-.41-1.13l3.38-1.23A.6.6,0,1,1,26.32,29Z"/><path class="cls-1" d="M22.07,33.13l6.77-2.46"/><path class="cls-1" d="M29,31.23l-6.77,2.46a.6.6,0,0,1-.41-1.13l6.77-2.46A.6.6,0,1,1,29,31.23Z"/></svg>