<svg id="Layer_1" data-name="Layer 1" xmlns="http://www.w3.org/2000/svg" viewBox="0 0 72 72"><defs><style>.cls-1{fill:none;stroke:#707a8b;stroke-miterlimit:10;stroke-width:0.5px;}.cls-2{fill:#f66830;}.cls-3{fill:#707a8b;}</style></defs><title>cannected-icons</title><line class="cls-1" x1="8.22" y1="59.26" x2="8.22" y2="12.51"/><line class="cls-1" x1="5.16" y1="12.42" x2="67.04" y2="12.42"/><line class="cls-1" x1="63.98" y1="59.26" x2="63.98" y2="12.51"/><rect class="cls-2" x="5.3" y="59.26" width="61.61" height="2.16"/><path class="cls-3" d="M35.95,27.68h0s-2.35,5-1.76,8.25a13.29,13.29,0,0,0,1.14,3.75,9.7,9.7,0,0,1,.3,1.71s0,0,0,0h.63s0,0,0,0l0-.31a12.42,12.42,0,0,1,.28-1.4,13.29,13.29,0,0,0,1.14-3.75C38.29,32.7,35.95,27.68,35.95,27.68Zm-.31,13.65c0-.12,0-.39,0-.76A5.27,5.27,0,0,1,35.63,41.33Z"/><path class="cls-2" d="M28,32.69s-.19,6.74,7.75,9.5l.25-.26s-.6-.25-1.84-3.85C33.45,36.15,33.3,35.18,28,32.69Z"/><path class="cls-2" d="M36,42.26c6.82,2,10.25-2,10.25-2s-3.13-1-8.36,1.14Z"/><path class="cls-2" d="M35.75,42.5a8.62,8.62,0,0,1-6.83,4s1.18-3.11,6.79-4.27Z"/><rect class="cls-3" x="35.61" y="41.33" width="0.66" height="6.69"/><path class="cls-3" d="M35.91,42.26c-6.82,2-10.25-2-10.25-2s3.13-1,8.36,1.14Z"/><path class="cls-3" d="M44,32.69s.19,6.74-7.75,9.5L36,41.94s.6-.25,1.84-3.85C38.53,36.15,38.68,35.18,44,32.69Z"/><path class="cls-3" d="M36.19,42.5a8.62,8.62,0,0,0,6.83,4s-1.18-3.11-6.79-4.27Z"/><polygon class="cls-3" points="28.62 47.86 30.57 59.26 35.94 59.26 35.96 59.26 41.33 59.26 43.28 47.86 28.62 47.86"/></svg>