<svg id="Layer_1" data-name="Layer 1" xmlns="http://www.w3.org/2000/svg" viewBox="0 0 72 72"><defs><style>.cls-1{fill:#f66830;}.cls-2{fill:#707a8b;}.cls-3{fill:#fff;}</style></defs><title>cannected-icons</title><polygon class="cls-1" points="48.58 44.17 59.26 38.17 59.66 40.8 48.58 46.5 48.58 44.17"/><polygon class="cls-1" points="37.59 38.17 37.5 40.85 48.18 46.5 48.18 44 37.59 38.17"/><path class="cls-2" d="M48.81,47.1l10.85-6.29a.48.48,0,0,0,.23-.41V27.81c0-.09-.09-.18-.14-.27h0l0,0L48.81,21.2a.41.41,0,0,0-.46,0L37.5,27.49l0,0h0a.39.39,0,0,0-.14.27V40.44a.48.48,0,0,0,.23.41l10.85,6.29h.09a.39.39,0,0,0,.32,0h0ZM38.19,28.68l3.24,1.87v2.64a.48.48,0,0,0,.23.41l2,1.14a.41.41,0,0,0,.23,0,.43.43,0,0,0,.46-.46v-2.1l3.83,2.23v9.17L38.19,37.8Zm15.6-3.56-9.94,5.75-1-.59,9.94-5.75Zm4.74,2.74L48.58,33.6l-3.83-2.23,9.94-5.75ZM59,37.8,49,43.54V34.42L59,28.68Zm-15.6-6.11v1.82l-1-.59V31.09ZM49,45.91V44.64L59,38.89v1.28Zm-.46-23.76L51.82,24l-9.94,5.75L38.64,27.9ZM38.19,38.89l9.94,5.75v1.28l-9.94-5.75Z"/><polygon class="cls-1" points="23.29 44.17 33.96 38.17 34.37 40.8 23.29 46.5 23.29 44.17"/><polygon class="cls-1" points="12.3 38.17 12.2 40.85 22.88 46.5 22.88 44 12.3 38.17"/><path class="cls-2" d="M23.51,47.1l10.85-6.29a.48.48,0,0,0,.23-.41V27.81c0-.09-.09-.18-.14-.27h0l0,0L23.51,21.2a.41.41,0,0,0-.46,0L12.2,27.49l0,0h0a.39.39,0,0,0-.14.27V40.44a.48.48,0,0,0,.23.41l10.85,6.29h.09a.39.39,0,0,0,.32,0h0ZM12.89,28.68l3.24,1.87v2.64a.48.48,0,0,0,.23.41l2,1.14a.41.41,0,0,0,.23,0,.43.43,0,0,0,.46-.46v-2.1l3.83,2.23v9.17L12.89,37.8Zm15.6-3.56-9.94,5.75-1-.59,9.94-5.75Zm4.74,2.74L23.28,33.6l-3.83-2.23,9.94-5.75Zm.46,9.94-9.94,5.75V34.42l9.94-5.75Zm-15.6-6.11v1.82l-1-.59V31.09Zm5.65,14.23V44.64l9.94-5.75v1.28Zm-.46-23.76L26.52,24l-9.94,5.75L13.34,27.9ZM12.89,38.89l9.94,5.75v1.28l-9.94-5.75Z"/><polygon class="cls-3" points="25.18 38.17 24.92 50.68 36 56.33 47.31 50.23 46.59 37.83 36.11 31.5 25.18 38.17"/><polygon class="cls-1" points="36 54 46.68 48 47.08 50.64 36 56.33 36 54"/><polygon class="cls-1" points="25.01 48 24.92 50.68 35.59 56.33 35.59 53.83 25.01 48"/><path class="cls-2" d="M36.23,56.93l10.85-6.29a.48.48,0,0,0,.23-.41V37.64c0-.09-.09-.18-.14-.27h0l0,0L36.23,31a.41.41,0,0,0-.46,0L24.92,37.32l0,0h0a.39.39,0,0,0-.14.27V50.27a.48.48,0,0,0,.23.41L35.77,57h.09a.39.39,0,0,0,.32,0h0ZM25.6,38.51l3.24,1.87V43a.48.48,0,0,0,.23.41l2,1.14a.41.41,0,0,0,.23,0,.43.43,0,0,0,.46-.46v-2.1l3.83,2.23v9.17L25.6,47.63ZM41.2,35,31.26,40.7l-1-.59,9.94-5.75Zm4.74,2.74L36,43.43,32.17,41.2l9.94-5.75Zm.46,9.94-9.94,5.75V44.25l9.94-5.75ZM30.8,41.52v1.82l-1-.59V40.93Zm5.65,14.23V54.47l9.94-5.75V50ZM36,32l3.24,1.87L29.3,39.6l-3.24-1.87ZM25.6,48.72l9.94,5.75v1.28L25.6,50Z"/></svg>