<svg id="Layer_1" data-name="Layer 1" xmlns="http://www.w3.org/2000/svg" viewBox="0 0 72 72"><defs><style>.cls-1,.cls-6{fill:#fff;}.cls-1,.cls-3,.cls-5{stroke:#707a8b;stroke-miterlimit:10;stroke-width:0.5px;}.cls-2,.cls-3{fill:none;}.cls-4{fill:#707a8b;}.cls-5,.cls-7{fill:#f66830;}</style></defs><title>cannected-icons</title><polygon class="cls-1" points="32.25 11.41 23.25 15.9 22.96 50.94 32.25 45.48 39.77 53.59 39.7 60.44 48.99 54.98 48.99 20.86 32.25 11.41"/><polygon class="cls-1" points="32.25 44.13 23.25 49.11 39.71 58.23 48.77 53.29 32.25 44.13"/><line class="cls-2" x1="32.34" y1="45.14" x2="32.25" y2="20.99"/><line class="cls-3" x1="32.25" y1="11.41" x2="32.25" y2="44.13"/><polygon class="cls-4" points="32.25 23.95 23.16 28.5 39.81 37.94 48.99 33.45 32.25 23.95"/><polygon class="cls-5" points="32.25 34.72 23.51 39.07 39.76 48.49 48.74 43.91 32.25 34.72"/><polyline class="cls-3" points="23.25 15.9 39.92 25.39 39.71 58.23"/><polygon class="cls-6" points="40.17 25.24 48.69 21.34 40.17 25.24 39.92 60.03 48.77 54.82 48.69 21.34 40.17 25.24"/><line class="cls-3" x1="39.92" y1="25.39" x2="48.99" y2="20.86"/><polygon class="cls-7" points="39.92 25.11 23.79 15.9 32.25 11.64 48.46 20.86 39.92 25.11"/></svg>