<svg id="Layer_1" data-name="Layer 1" xmlns="http://www.w3.org/2000/svg" viewBox="0 0 72 72"><defs><style>.cls-1{fill:#f66830;}.cls-2{fill:#fff;}.cls-3{fill:#707a8b;}.cls-4{fill:none;stroke:#707a8b;stroke-miterlimit:10;}</style></defs><title>cannected-icons</title><path class="cls-1" d="M45.68,14.67,30.51,50S23.59,47,24.09,40,27,28.38,31.47,25,44.26,14.08,45.68,14.67Z"/><rect class="cls-2" x="34.12" y="23.94" width="1" height="9.99" transform="translate(-10.35 32.61) rotate(-44.56)"/><rect class="cls-3" x="36.22" y="34.72" width="11.69" height="1" transform="translate(-6.12 8.99) rotate(-11.38)"/><rect class="cls-2" x="29.47" y="29.87" width="1" height="12.6" transform="translate(-16.52 29.49) rotate(-42.18)"/><rect class="cls-3" x="38.34" y="38.78" width="1" height="12.3" transform="translate(-7.2 82.45) rotate(-88.34)"/><line class="cls-4" x1="45.68" y1="14.08" x2="26.92" y2="58.44"/><path class="cls-3" d="M30.25,50.66C24.12,48,21.75,39.78,25,32.24,28.11,24.9,44.84,14.06,45.55,13.6a.59.59,0,0,1,.56,0,.6.6,0,0,1,.35.44c.16.83,3.89,20.41.75,27.75A16.68,16.68,0,0,1,39.88,50a13.44,13.44,0,0,1-1.72.77A10.63,10.63,0,0,1,30.25,50.66Zm-4.17-18c-3,6.93-.88,14.49,4.64,16.85a9.83,9.83,0,0,0,8.6-.63,15.49,15.49,0,0,0,6.79-7.66c2.63-6.15,0-22.21-.66-26.16C42.11,17.34,28.71,26.56,26.08,32.71Z"/></svg>