<svg id="Layer_1" data-name="Layer 1" xmlns="http://www.w3.org/2000/svg" viewBox="0 0 72 72"><defs><style>.cls-1{fill:#fff;}.cls-2{fill:#f66830;}.cls-3{fill:none;stroke:#707a8b;stroke-miterlimit:10;}.cls-4{fill:#707a8b;}</style></defs><title>cannected-icons</title><path class="cls-1" d="M42.57,37.64c-.06.15-.12.3-.19.45C42.44,37.94,42.51,37.79,42.57,37.64Z"/><path class="cls-1" d="M42.77,37c0,.16-.1.31-.16.47C42.67,37.36,42.72,37.2,42.77,37Z"/><path class="cls-1" d="M29.39,37.51c-.06-.15-.11-.31-.16-.47C29.28,37.2,29.33,37.36,29.39,37.51Z"/><path class="cls-1" d="M40,40.86l-.38.24Z"/><path class="cls-1" d="M42.31,38.21q-.11.22-.24.44Q42.2,38.43,42.31,38.21Z"/><path class="cls-1" d="M29.63,38.09c-.07-.15-.14-.3-.19-.45C29.49,37.79,29.56,37.94,29.63,38.09Z"/><path class="cls-1" d="M39.49,41.21l-.35.18Z"/><path class="cls-1" d="M42,38.74c-.09.15-.18.29-.28.43C41.84,39,41.93,38.89,42,38.74Z"/><path class="cls-1" d="M32.35,41.11,32,40.86Z"/><path class="cls-1" d="M38.9,41.5l-.33.14Z"/><path class="cls-1" d="M35.32,42.1l-.24,0Z"/><path class="cls-1" d="M34,41.85l-.32-.1Z"/><path class="cls-1" d="M34.66,42l-.29-.07Z"/><path class="cls-1" d="M30.26,39.17c-.1-.14-.19-.29-.28-.43C30.07,38.89,30.16,39,30.26,39.17Z"/><path class="cls-1" d="M33.43,41.64l-.33-.14Z"/><path class="cls-1" d="M32.87,41.39l-.35-.18Z"/><path class="cls-1" d="M29.92,38.65q-.13-.21-.24-.44Q29.8,38.43,29.92,38.65Z"/><path class="cls-1" d="M40.06,40.84a7.08,7.08,0,0,0,1.64-1.62A7.11,7.11,0,0,1,40.06,40.84Z"/><path class="cls-1" d="M30.3,39.22a7.08,7.08,0,0,0,1.64,1.62A7.11,7.11,0,0,1,30.3,39.22Z"/><path class="cls-1" d="M37.63,41.94l-.29.07Z"/><path class="cls-1" d="M36.68,42.1l.24,0Z"/><path class="cls-1" d="M38.28,41.75l-.32.1Z"/><path class="cls-1" d="M33.72,41.75l-.29-.1Z"/><path class="cls-1" d="M32,40.86l0,0Z"/><path class="cls-1" d="M36.68,42.1c-.22,0-.45,0-.68,0C36.23,42.13,36.46,42.12,36.68,42.1Z"/><path class="cls-1" d="M30.3,39.22l0,0Z"/><path class="cls-1" d="M35.08,42.07,34.66,42Z"/><path class="cls-1" d="M33.1,41.5l-.23-.11Z"/><path class="cls-1" d="M36,42.13c-.23,0-.46,0-.68,0C35.54,42.12,35.77,42.13,36,42.13Z"/><path class="cls-1" d="M34.37,41.94,34,41.85Z"/><path class="cls-1" d="M38.57,41.64l-.29.1Z"/><path class="cls-1" d="M32.52,41.21l-.16-.1Z"/><path class="cls-1" d="M41.74,39.17l0,0Z"/><path class="cls-1" d="M42.08,38.65l-.06.09Z"/><path class="cls-1" d="M40.06,40.84l0,0Z"/><path class="cls-1" d="M30,38.74l-.06-.09Z"/><path class="cls-1" d="M39.13,41.39l-.23.11Z"/><path class="cls-1" d="M37.34,42l-.42.06Z"/><path class="cls-1" d="M39.65,41.11l-.16.1Z"/><path class="cls-1" d="M38,41.85l-.34.09Z"/><path class="cls-1" d="M42.37,38.09l-.06.12Z"/><path class="cls-1" d="M29.23,37l0-.11Z"/><path class="cls-1" d="M42.8,36.93l0,.11Z"/><path class="cls-1" d="M29.69,38.21l-.06-.12Z"/><path class="cls-1" d="M29.43,37.64l0-.13Z"/><path class="cls-1" d="M42.61,37.51l0,.13Z"/><path class="cls-2" d="M29.37,35.38a6.65,6.65,0,0,0,13.26,0Z"/><rect class="cls-2" x="26.82" y="32.59" width="18.36" height="3.26"/><polyline class="cls-3" points="21.32 36.38 21.53 45.68 50.67 45.78 50.67 36.33"/><path class="cls-4" d="M45.85,25.72H26.15L20.82,36.39h8.26c0,.17.09.37.13.51s.13.43.19.58l0,.13c.06.15.13.3.19.45l.06.12q.11.22.24.44l.06.09c.09.15.18.29.28.43l0,0a7.11,7.11,0,0,0,1.64,1.62l0,0,.38.24.16.1.35.18.23.11.33.14.29.1.32.1.34.09.29.07.42.06.24,0c.22,0,.45,0,.68,0s.46,0,.68,0l.24,0,.42-.06.29-.07.34-.09.32-.1.29-.1.33-.14.23-.11.35-.18.16-.1.38-.24,0,0a7.11,7.11,0,0,0,1.64-1.62l0,0c.1-.14.19-.29.28-.43l.06-.09q.13-.21.24-.44l.06-.12c.07-.15.14-.3.19-.45l0-.13c.06-.15.11-.31.16-.47l0-.11c0-.11.07-.32.1-.51h0c0,.18-.07.36-.11.51,0-.17.09-.34.12-.51h8.26Zm-3.08,9.67H42a6,6,0,0,1-12.07,0H22.43l4.33-8.67H45.23l4.33,8.67h-6.8Z"/><rect class="cls-3" x="29.07" y="30.04" width="13.86" height="2.55"/><polyline class="cls-3" points="45.18 35.85 45.18 32.59 26.82 32.59 26.82 35.85"/></svg>