<?xml version="1.0" encoding="UTF-8"?>
<svg width="143px" height="143px" viewBox="0 0 143 143" version="1.1" xmlns="http://www.w3.org/2000/svg" xmlns:xlink="http://www.w3.org/1999/xlink">
    <!-- Generator: Sketch 51.2 (57519) - http://www.bohemiancoding.com/sketch -->
    <title>add inventory icon</title>
    <desc>Created with Sketch.</desc>
    <defs></defs>
    <g id="Page-1" stroke="none" stroke-width="1" fill="none" fill-rule="evenodd">
        <g id="1.0-Dashboard-Menu-Sidebar-Expanded" transform="translate(-754.000000, -402.000000)">
            <g id="Group" transform="translate(345.000000, 352.000000)">
                <g id="action-group-2" transform="translate(330.000000, 0.000000)">
                    <g id="add-inventory-icon" transform="translate(79.000000, 50.000000)">
                        <circle id="Oval" fill="#F3F5F7" cx="71.5" cy="71.5" r="71.5"></circle>
                        <path d="M41.2247712,96.8157895 L45.8089818,98.7315789 L45.8089818,67.8394737 L37.4958239,87.8868421 C36.0931923,91.3763158 37.7695081,95.3789474 41.2247712,96.8157895 L41.2247712,96.8157895 Z M107.935298,84.1578947 L90.9668765,43.2078947 C89.9063502,40.6421053 87.4089818,39.0684211 84.7747712,39 C83.8852976,39 82.9616133,39.1368421 82.0721397,39.5131579 L56.8589818,49.9473684 C54.2931923,51.0078947 52.7195081,53.4710526 52.651087,56.1052632 C52.6168765,57.0289474 52.7879291,57.9526316 53.1642449,58.8421053 L70.132666,99.7921053 C71.1931923,102.392105 73.7247712,103.965789 76.3931923,104 C77.282666,104 78.1721397,103.828947 79.0274028,103.486842 L104.20635,93.0526316 C107.695824,91.6157895 109.37214,87.6131579 107.935298,84.1578947 L107.935298,84.1578947 Z M59.5274028,59.5263158 C57.6458239,59.5263158 56.1063502,57.9868421 56.1063502,56.1052632 C56.1063502,54.2236842 57.6458239,52.6842105 59.5274028,52.6842105 C61.4089818,52.6842105 62.9484555,54.2236842 62.9484555,56.1052632 C62.9484555,57.9868421 61.4089818,59.5263158 59.5274028,59.5263158 L59.5274028,59.5263158 Z M52.6852976,97.1578947 C52.6852976,100.921053 55.7642449,104 59.5274028,104 L64.4879291,104 L52.6852976,75.4684211 L52.6852976,97.1578947 L52.6852976,97.1578947 Z" id="Shape" fill="#A6BCC6"></path>
                        <path d="M100,75 C91.72,75 85,81.72 85,90 C85,98.28 91.72,105 100,105 C108.28,105 115,98.28 115,90 C115,81.72 108.28,75 100,75 L100,75 Z" id="Path" fill="#F66830"></path>
                        <polygon id="Shape" fill="#FFFFFF" points="101.5 82.5 98.5 82.5 98.5 88.5 92.5 88.5 92.5 91.5 98.5 91.5 98.5 97.5 101.5 97.5 101.5 91.5 107.5 91.5 107.5 88.5 101.5 88.5"></polygon>
                    </g>
                </g>
            </g>
        </g>
    </g>
</svg>